PathFileType	4	(X/Y/Z)	D:\TRACE\v60_Jaco2_6-2-23\JustArmDRS_Motion1_2-platform.trc
DataRate	CameraRate	NumFrames	NumMarkers	Units	OrigDataRate	OrigDataStartFrame	OrigNumFrames
100.00	100.00	      41	5	mm	100.00	3405	      6808
Frame#	Time	Left_Front			Right_Front			Left_Aft			Right_Aft			Post			
		X1	Y1	Z1	X2	Y2	Z2	X3	Y3	Z3	X4	Y4	Z4	X5	Y5	Z5	

3405	34.040	-765.14227	-19.06951	-645.20636	804.68652	-17.17443	-650.75146	-673.32507	26.29005	489.06839	768.77429	26.70908	498.48987	20.91083	1266.57947	-1021.07745	
3406	34.050	-764.45178	-18.89399	-645.17444	805.40491	-17.02546	-650.71594	-672.46838	26.24060	489.06680	769.82678	26.77488	498.86731	21.33405	1266.71179	-1020.82190	
3407	34.060	-763.72943	-18.90068	-644.84930	806.49469	-16.93531	-650.49438	-671.87549	26.26855	489.03613	770.58984	26.61887	498.85748	21.83198	1266.83472	-1020.58264	
3408	34.070	-762.94965	-18.85947	-644.83398	806.98169	-16.80776	-650.53510	-671.23718	26.20723	489.01987	771.09021	26.66082	498.93448	22.77123	1266.87195	-1020.28101	
3409	34.080	-762.27374	-18.65597	-645.08862	807.69049	-16.54711	-650.58160	-670.33252	26.04152	489.04752	771.91656	26.58783	498.89731	23.88933	1267.14783	-1019.78351	
3410	34.090	-761.40778	-18.53789	-645.08990	808.30792	-16.50045	-650.67261	-669.56763	25.88991	489.15033	772.87286	26.50729	498.78778	24.56666	1267.37170	-1019.61279	
3411	34.100	-760.90314	-18.41595	-645.01715	808.97083	-16.40139	-650.74323	-669.03705	25.75798	489.25232	773.40839	26.31078	498.87927	25.08364	1267.76794	-1019.41589	
3412	34.110	-760.20935	-18.12565	-644.84442	809.70013	-16.18187	-650.66779	-668.27148	25.64036	489.37881	774.10022	26.16891	498.95605	25.42024	1267.94275	-1019.22156	
3413	34.120	-759.62463	-17.81831	-644.77399	810.43762	-15.90184	-650.51770	-667.67535	25.51259	489.41489	774.54321	26.10881	499.06577	26.26307	1268.08875	-1018.97516	
3414	34.130	-758.89301	-17.67964	-644.76392	810.98407	-15.57720	-650.27985	-667.02844	25.48780	489.36481	775.31964	25.91455	498.97031	27.13239	1268.61462	-1018.62939	
3415	34.140	-758.18262	-17.41324	-645.00232	811.49713	-15.46035	-650.50055	-666.48206	25.42415	489.39484	776.34265	25.79554	499.12692	27.74119	1268.98828	-1018.29535	
3416	34.150	-757.54700	-17.28630	-645.06586	812.27911	-15.31802	-650.55780	-665.89667	25.32853	489.43933	776.70862	25.71853	499.23642	28.17763	1269.35168	-1017.76465	
3417	34.160	-757.15057	-16.97195	-645.05847	812.86511	-15.19194	-650.39752	-665.26410	25.13610	489.46564	777.37604	25.61297	499.35385	28.38954	1269.55847	-1017.36621	
3418	34.170	-756.58167	-16.72445	-644.88757	813.52600	-15.00702	-650.44806	-664.70721	24.89664	489.55624	777.80463	25.41605	499.46030	29.02089	1269.81787	-1016.67560	
3419	34.180	-756.03680	-16.62748	-644.74445	813.95905	-14.86659	-650.41394	-663.97766	24.62569	489.56900	778.01312	25.18850	499.13174	29.66380	1269.99060	-1016.22821	
3420	34.190	-755.59961	-16.55323	-644.62079	814.46490	-14.65209	-650.28754	-663.51666	24.51361	489.64871	778.64795	25.13112	499.15704	30.67376	1270.30029	-1015.65961	
3421	34.200	-754.83228	-16.43657	-644.57855	815.04846	-14.37473	-650.22717	-663.15295	24.41541	489.69489	779.54321	25.14160	499.45941	31.12881	1270.50342	-1015.37909	
3422	34.210	-754.25134	-16.13066	-644.73462	815.44714	-14.20406	-650.30359	-662.55267	24.28621	489.66177	779.83264	24.98541	499.55606	31.58121	1270.86572	-1014.95770	
3423	34.220	-753.91937	-16.03421	-644.77496	815.92676	-13.94508	-650.26678	-662.25244	24.25318	489.67715	780.52722	24.77157	499.50574	32.12208	1271.18616	-1014.67841	
3424	34.230	-753.56799	-15.79204	-644.72034	816.46704	-13.74254	-650.07446	-661.68536	24.17040	489.68515	780.86755	24.69265	499.54770	32.49049	1271.50269	-1014.46503	
3425	34.240	-753.17615	-15.51461	-644.61005	816.88000	-13.61336	-650.09845	-661.21558	23.98633	489.73041	781.11786	24.55309	499.60547	32.89193	1271.74609	-1014.17151	
3426	34.250	-752.91827	-15.36537	-644.57605	817.14221	-13.36205	-650.12451	-660.85815	23.81706	489.79883	781.47949	24.35783	499.69965	33.10759	1272.04858	-1013.95142	
3427	34.260	-752.52686	-15.07473	-644.44385	817.57892	-13.03134	-649.93744	-660.60327	23.56850	489.87534	781.95245	24.08191	499.73029	33.45861	1272.67798	-1013.42358	
3428	34.270	-752.25220	-14.83607	-644.29968	817.89667	-12.77633	-649.82330	-660.31396	23.36510	489.91592	782.19904	23.95916	499.75034	33.79564	1273.09521	-1012.80121	
3429	34.280	-751.95709	-14.67478	-644.25769	818.08270	-12.61857	-649.71991	-659.86200	23.15679	490.02579	782.30420	23.86517	499.82892	33.97137	1273.31348	-1012.28448	
3430	34.290	-751.67963	-14.51843	-644.20264	818.39630	-12.40311	-649.75067	-659.57745	22.99751	490.17453	782.71881	23.71923	499.82196	34.52758	1273.74902	-1011.71692	
3431	34.300	-751.41888	-14.19871	-644.11963	818.71002	-12.16710	-649.67017	-659.40192	22.90902	490.23608	782.83600	23.60685	499.75485	34.92668	1274.00183	-1011.07135	
3432	34.310	-751.17639	-14.05539	-644.08704	818.86682	-11.98371	-649.68396	-659.30054	22.84316	490.30362	783.06580	23.39218	499.93732	35.02641	1274.29968	-1010.29907	
3433	34.320	-750.95825	-13.85646	-644.08557	819.05219	-11.80932	-649.67273	-659.16675	22.76398	490.28418	783.31116	23.21472	500.03387	35.05428	1274.66467	-1009.44440	
3434	34.330	-750.74994	-13.49390	-644.13129	819.01520	-11.61712	-649.68176	-658.98871	22.68420	490.27798	783.49249	23.06051	500.13217	35.11603	1274.89050	-1009.04016	
3435	34.340	-750.52100	-13.11604	-644.06879	819.11273	-11.35505	-649.62341	-658.82428	22.52429	490.33832	783.24213	22.92158	500.33423	35.40363	1275.45239	-1008.48138	
3436	34.350	-750.33447	-12.94491	-644.07263	819.44464	-10.86010	-649.33160	-658.74194	22.35908	490.41846	783.32343	22.65944	500.43881	35.44192	1275.81958	-1008.32288	
3437	34.360	-750.32343	-12.73957	-643.96143	819.50439	-10.68101	-649.44550	-658.63647	22.21127	490.49237	783.34308	22.48952	500.53082	35.27475	1276.17981	-1007.98096	
3438	34.370	-750.41046	-12.47149	-643.85339	819.48358	-10.53734	-649.51843	-658.55292	22.00182	490.59613	783.39417	22.34366	500.57571	35.32363	1276.47803	-1007.61945	
3439	34.380	-750.36255	-12.33431	-643.90442	819.50146	-10.23619	-649.45404	-658.48297	21.72315	490.65805	783.70081	22.23233	500.49796	35.32144	1277.06226	-1007.19977	
3440	34.390	-750.36102	-12.27779	-643.89722	819.42596	-9.95720	-649.49445	-658.45105	21.42581	490.73154	783.67334	22.10861	500.58289	35.49173	1277.39758	-1006.65491	
3441	34.400	-750.40930	-11.89348	-643.64319	819.48254	-9.73862	-649.37231	-658.48138	21.22640	490.79303	783.76190	21.95070	500.64917	35.73869	1277.60901	-1006.16882	
3442	34.410	-750.44781	-11.69506	-643.54724	819.40204	-9.51696	-649.35016	-658.50183	21.06998	490.81250	783.66760	21.69033	500.69159	35.93988	1277.91516	-1005.82343	
3443	34.420	-750.49390	-11.42852	-643.50323	819.39117	-9.31325	-649.34625	-658.55457	20.90371	490.89856	783.71198	21.45053	500.75262	35.82801	1278.27844	-1005.22192	
3444	34.430	-750.41968	-11.19440	-643.50299	819.38745	-9.21553	-649.35541	-658.59613	20.74759	490.97256	783.79120	21.23379	500.81238	35.43176	1278.69617	-1004.63373	
3445	34.440	-750.36853	-10.78971	-643.45319	819.43243	-8.96927	-649.26184	-658.63409	20.62699	490.99826	783.80121	21.05901	500.84824	35.49917	1279.44385	-1003.68542	
